<?xml version="1.0" standalone="no"?>
<!DOCTYPE svg PUBLIC "-//W3C//DTD SVG 20010904//EN"
 "http://www.w3.org/TR/2001/REC-SVG-20010904/DTD/svg10.dtd">
<svg version="1.0" xmlns="http://www.w3.org/2000/svg"
 width="360.000000pt" height="360.000000pt" viewBox="0 0 360.000000 360.000000"
 preserveAspectRatio="xMidYMid meet">
<metadata>
Created by potrace 1.16, written by Peter Selinger 2001-2019
</metadata>
<g transform="translate(0.000000,360.000000) scale(0.100000,-0.100000)"
fill="#000000" stroke="none">
<path d="M1315 2688 c-2 -7 -30 -145 -63 -305 l-59 -293 79 0 c45 0 78 -4 78
-10 0 -9 -190 -1054 -207 -1135 -3 -16 -3 -28 0 -25 3 3 44 106 92 230 48 124
103 266 122 315 19 50 87 223 149 385 63 162 123 316 134 343 l19 47 -65 0
c-73 0 -71 -5 -51 100 l12 65 250 -4 c272 -3 285 -6 329 -64 32 -43 28 -126
-8 -200 -60 -124 -192 -214 -329 -224 l-75 -6 -55 -141 -54 -141 95 -3 c53 -1
119 2 147 8 232 49 448 223 549 440 129 281 24 554 -239 616 -82 19 -843 21
-850 2z"/>
</g>
</svg>
